<?xml version="1.0" standalone="no"?>
<svg viewBox="0 0 200 200" xmlns="http://www.w3.org/2000/svg">
  <path fill="#CABA9C" d="M21.1,-34.6C25.5,-33.9,26,-24.6,22.3,-17.4C18.6,-10.2,10.7,-5.1,17.6,4C24.5,13.1,46.1,26.1,49.7,33.1C53.2,40,38.6,40.8,27.3,48C16,55.1,8,68.6,-0.9,70.1C-9.8,71.6,-19.5,61.2,-29.9,53.5C-40.3,45.8,-51.3,40.9,-57.8,32.4C-64.4,24,-66.5,12,-69.1,-1.5C-71.7,-15,-74.7,-29.9,-66.5,-35.6C-58.4,-41.3,-39.1,-37.8,-26.1,-33.5C-13.2,-29.2,-6.6,-24.2,0.9,-25.7C8.3,-27.2,16.6,-35.2,21.1,-34.6Z" transform="translate(100 100)" />
</svg>
